# xmcd CD database file generated by Grip 2.4
# 
# Track frame offsets:
#       150
#       22635
#       48237
#       64305
#       79595
#       95270
#       117972
#       129729
#       144430
#       168082
#       180772
#       191747
#       222692
#       236625
#       252840
#       261350
#       276902
#       288757
#       304605
#       324047
# 
# Disc length: 4554 seconds
# 
# Revision: 3
# Processed by: cddbd v1.4b41PL1 Copyright (c) Steve Scherf et al.
# Submitted via: Grip 2.4
# 
DISCID=1011c814
DTITLE=B.B. King - B.B. King Collector's Edition
DYEAR=1900
DGENRE=
TTITLE0=The Thrill Is Gone
TTITLE1=Guess Who
TTITLE2=It's My Own Fault Baby
TTITLE3=How Blue Can You Get
TTITLE4=The Letter
TTITLE5=Everyday I have the Blues
TTITLE6=Payin' the Cost to be the Boss
TTITLE7=Mr. Pawnbroker
TTITLE8=You Done Lost Your Good Thing Now
TTITLE9=Please Love Me
TTITLE10=Catfish Blues
TTITLE11=Outside Help
TTITLE12=Save a Seat for Me
TTITLE13=The Other Night Blues
TTITLE14=A New Way of Driving
TTITLE15=Walkin' and Cryin'
TTITLE16=I Never Heard a Man
TTITLE17=Long Nights
TTITLE18=Sweet Sixteen
TTITLE19=Evil Child
EXTD=
EXTT0=
EXTT1=
EXTT2=
EXTT3=
EXTT4=
EXTT5=
EXTT6=
EXTT7=
EXTT8=
EXTT9=
EXTT10=
EXTT11=
EXTT12=
EXTT13=
EXTT14=
EXTT15=
EXTT16=
EXTT17=
EXTT18=
EXTT19=
PLAYORDER=
